<svg xmlns="http://www.w3.org/2000/svg" width="14" height="14" viewBox="0 0 14 14" xml:space="preserve">
    <path fill="#CCC" d="M.681 12.426v-7.9c-.164-.052-.314-.19-.452-.413-.136-.222-.204-.506-.204-.85V1.558c0-.42.15-.785.45-1.094C.775.155 1.14 0 1.565 0h10.852a1.5 1.5 0 0 1 1.094.463c.309.309.464.674.464 1.094v1.705c0 .344-.071.628-.213.85-.142.223-.29.361-.443.413v7.9c0 .416-.155.782-.463 1.1-.31.316-.674.475-1.095.475h-9.54a1.45 1.45 0 0 1-1.09-.475 1.55 1.55 0 0 1-.45-1.099zm1.54-7.607v7.64h9.54v-7.64h-9.54zm10.196-1.556V1.558H1.565v1.705h10.852zM4.812 8.064h4.377V6.901H4.812v1.163zm-2.591 4.395v-7.64 7.64z"/>
</svg>
