<svg xmlns="http://www.w3.org/2000/svg" width="14" height="14" viewBox="0 0 14 14" xml:space="preserve">
    <path fill="#CCC" d="M7.025 10.842a.723.723 0 0 0 .526-.23c.153-.152.23-.332.23-.536s-.077-.38-.23-.526a.755.755 0 0 0-1.06-.002.724.724 0 0 0-.223.536.73.73 0 0 0 .225.528c.148.154.326.23.532.23zm-.708-2.403h1.218a2.6 2.6 0 0 1 .105-.748c.073-.235.278-.496.618-.781.318-.241.547-.506.684-.794.138-.287.205-.604.205-.952 0-.613-.18-1.104-.539-1.471-.36-.367-.855-.551-1.484-.551-.57 0-1.08.156-1.53.469a2.73 2.73 0 0 0-.988 1.244l1.136.426c.132-.318.31-.56.534-.725a1.22 1.22 0 0 1 .732-.245c.27 0 .498.08.688.241.188.16.283.375.283.642 0 .201-.063.403-.188.606-.127.202-.3.391-.519.567-.308.263-.543.552-.708.865s-.247.716-.247 1.207zM6.995 14a6.88 6.88 0 0 1-2.725-.544A6.956 6.956 0 0 1 .544 9.732 6.83 6.83 0 0 1 0 7.011a6.932 6.932 0 0 1 2.039-4.962A7.152 7.152 0 0 1 4.263.552 6.778 6.778 0 0 1 6.989 0c.979 0 1.893.184 2.743.551a7.051 7.051 0 0 1 2.222 1.493 7.032 7.032 0 0 1 1.495 2.219c.367.85.551 1.765.551 2.746 0 .968-.184 1.877-.553 2.728a7.14 7.14 0 0 1-1.496 2.226A6.918 6.918 0 0 1 6.995 14zm-.003-1.546c1.514 0 2.8-.528 3.857-1.586 1.059-1.058 1.588-2.343 1.588-3.859 0-1.514-.529-2.8-1.588-3.858-1.057-1.058-2.347-1.588-3.866-1.588-1.508 0-2.791.529-3.85 1.587-1.057 1.059-1.587 2.348-1.587 3.867 0 1.508.528 2.792 1.585 3.85 1.058 1.058 2.344 1.587 3.861 1.587z"/>
</svg>
