<svg xmlns="http://www.w3.org/2000/svg" width="9.822" height="9" viewBox="19.089 115.125 9.822 9" xml:space="preserve">
    <path fill="#FF5A5A" d="m24 124.125-.503-.454a53.883 53.883 0 0 1-2.148-2.057 15.25 15.25 0 0 1-1.351-1.547c-.336-.455-.571-.866-.706-1.234a3.225 3.225 0 0 1-.203-1.117c0-.737.248-1.353.743-1.848s1.107-.743 1.835-.743c.467 0 .898.11 1.295.332.397.221.743.54 1.038.957.344-.441.708-.768 1.093-.976a2.558 2.558 0 0 1 1.24-.313c.729 0 1.341.248 1.835.743.496.495.743 1.11.743 1.848 0 .376-.067.749-.202 1.117-.136.368-.371.779-.706 1.234-.336.454-.786.97-1.351 1.547a55.44 55.44 0 0 1-2.149 2.057l-.503.454z"/>
</svg>
