<svg xmlns="http://www.w3.org/2000/svg" width="16" height="16" viewBox="0 0 16 16" xml:space="preserve">
    <path fill="#2A61BE" d="M10.621 7.099c.302 0 .564-.11.789-.329.226-.221.338-.479.338-.783 0-.302-.11-.564-.332-.79a1.077 1.077 0 0 0-.793-.337c-.308 0-.565.107-.777.326-.213.218-.318.48-.318.793 0 .311.105.574.318.793.213.217.47.327.775.327zm-5.264 0c.307 0 .565-.106.777-.321.212-.216.318-.477.318-.783 0-.308-.106-.572-.319-.798a1.02 1.02 0 0 0-.774-.338c-.303 0-.566.109-.791.333s-.337.486-.337.792.111.568.333.787c.223.218.488.328.793.328zm2.633 5.03c.873 0 1.664-.24 2.373-.725a3.913 3.913 0 0 0 1.5-1.914H4.119c.304.793.807 1.432 1.508 1.914s1.49.725 2.363.725zM7.992 16a7.862 7.862 0 0 1-3.106-.619 7.884 7.884 0 0 1-4.271-4.264A7.932 7.932 0 0 1 0 8.012c0-1.096.207-2.131.621-3.105a8.035 8.035 0 0 1 1.705-2.561A7.966 7.966 0 0 1 4.879.625 7.85 7.85 0 0 1 7.988 0c1.096 0 2.133.211 3.108.627.978.418 1.831.99 2.562 1.715A7.972 7.972 0 0 1 15.377 4.9 7.9 7.9 0 0 1 16 8.012a7.8 7.8 0 0 1-.627 3.108 8.135 8.135 0 0 1-1.721 2.556 7.88 7.88 0 0 1-2.555 1.709A7.9 7.9 0 0 1 7.992 16z"/>
</svg>
